<svg>
  <defs>
    <g id="map-marker-radius">
       <path d="M12,2C15.31,2 18,4.66 18,7.95C18,12.41 12,19 12,19C12,19 6,12.41 6,7.95C6,4.66 8.69,2 12,2M12,6A2,2 0 0,0 10,8A2,2 0 0,0 12,10A2,2 0 0,0 14,8A2,2 0 0,0 12,6M20,19C20,21.21 16.42,23 12,23C7.58,23 4,21.21 4,19C4,17.71 5.22,16.56 7.11,15.83L7.75,16.74C6.67,17.19 6,17.81 6,18.5C6,19.88 8.69,21 12,21C15.31,21 18,19.88 18,18.5C18,17.81 17.33,17.19 16.25,16.74L16.89,15.83C18.78,16.56 20,17.71 20,19Z" />
    </g>
    <g id="theater">
       <path d="M4,15H6A2,2 0 0,1 8,17V19H9V17A2,2 0 0,1 11,15H13A2,2 0 0,1 15,17V19H16V17A2,2 0 0,1 18,15H20A2,2 0 0,1 22,17V19H23V22H1V19H2V17A2,2 0 0,1 4,15M11,7L15,10L11,13V7M4,2H20A2,2 0 0,1 22,4V13.54C21.41,13.19 20.73,13 20,13V4H4V13C3.27,13 2.59,13.19 2,13.54V4A2,2 0 0,1 4,2Z" />
    </g>

  </defs>
</svg>
